<svg width="41" height="41" viewBox="0 0 41 41" fill="none" xmlns="http://www.w3.org/2000/svg">
<g clip-path="url(#clip0)">
<path d="M33.7221 12.6537C33.1426 12.6537 32.5908 12.7746 32.0897 12.9919C31.4805 11.4524 29.9862 10.361 28.2425 10.361C27.5948 10.361 26.9813 10.5117 26.4349 10.7798C25.7434 9.44671 24.3576 8.5338 22.7631 8.5338C22.2944 8.5338 21.8444 8.61373 21.4239 8.7591V4.16916C21.4241 1.8704 19.5666 0 17.2833 0C15.0003 0 13.143 1.8704 13.143 4.16916V20.6855L10.1609 17.2739C10.1401 17.2505 10.1188 17.2276 10.0967 17.2057C9.31374 16.4221 8.27162 15.9877 7.16241 15.9823C7.15523 15.9823 7.14847 15.9823 7.14129 15.9823C6.03471 15.9823 4.99866 16.4095 4.22215 17.1866C2.853 18.5562 2.77721 20.5891 4.0148 22.7648C5.61684 25.5796 7.3583 28.2337 8.8949 30.5757C10.0178 32.2872 11.0785 33.9037 11.8539 35.2403C12.5264 36.4002 14.3113 40.1618 14.3295 40.1998C14.5612 40.6886 15.0539 41.0002 15.5945 41.0002H33.3018C33.9101 41.0002 34.4487 40.6077 34.6352 40.029C34.9654 39.0021 37.8626 29.8966 37.8626 26.3801V16.8233C37.8623 14.5239 36.0052 12.6537 33.7221 12.6537ZM32.3831 16.8231C32.3831 16.0683 32.9839 15.4543 33.7221 15.4543C34.4608 15.4543 35.0616 16.0683 35.0616 16.8231V26.38C35.0616 28.7169 33.2656 34.9993 32.2746 38.1993H16.4776C15.8969 36.9911 14.8087 34.7531 14.2765 33.8352C13.4641 32.4344 12.3855 30.7903 11.2434 29.0495C11.2411 29.0459 11.2388 29.0424 11.2365 29.0389C9.72263 26.7322 8.00712 24.1173 6.44885 21.3798C6.04216 20.6646 5.66943 19.7003 6.20312 19.1666C6.45202 18.9172 6.7872 18.7868 7.14888 18.783C7.50187 18.7848 7.83387 18.9179 8.08829 19.1586L13.4892 25.3369C13.873 25.7763 14.4898 25.9313 15.0357 25.7263C15.582 25.5212 15.9439 24.9987 15.9439 24.4153V4.16916C15.9439 3.41446 16.5448 2.8007 17.2835 2.8007C18.0223 2.8007 18.6234 3.41446 18.6234 4.16916V17.2438C18.6234 18.0171 19.2505 18.6441 20.0237 18.6441C20.7969 18.6441 21.4241 18.0171 21.4241 17.2438V12.7026C21.4241 11.9483 22.0248 11.3346 22.7633 11.3346C23.5019 11.3346 24.1027 11.9483 24.1027 12.7026V19.0703C24.1027 19.844 24.7297 20.4707 25.5029 20.4707C26.2763 20.4707 26.9034 19.8442 26.9034 19.0703V14.5302C26.9034 13.7755 27.5042 13.1616 28.2426 13.1616C28.9815 13.1616 29.5825 13.7755 29.5825 14.5302V20.8983C29.5825 21.6715 30.2095 22.2988 30.9829 22.2988C31.7563 22.2988 32.3833 21.6715 32.3833 20.8983L32.3831 16.8231Z" fill="#EDF2F7"/>
<path d="M32.3831 16.8231C32.3831 16.0683 32.9839 15.4543 33.7221 15.4543C34.4608 15.4543 35.0616 16.0683 35.0616 16.8231V26.38C35.0616 28.7169 33.2656 34.9993 32.2746 38.1993H16.4776C15.8969 36.9911 14.8087 34.7531 14.2765 33.8352C13.4641 32.4344 12.3855 30.7903 11.2434 29.0495L11.2365 29.0389C9.72263 26.7322 8.00712 24.1173 6.44885 21.3798C6.04216 20.6646 5.66943 19.7003 6.20312 19.1666C6.45202 18.9172 6.7872 18.7868 7.14888 18.783C7.50187 18.7848 7.83387 18.9179 8.08829 19.1586L13.4892 25.3369C13.873 25.7763 14.4898 25.9313 15.0357 25.7263C15.582 25.5212 15.9439 24.9987 15.9439 24.4153V4.16916C15.9439 3.41446 16.5448 2.8007 17.2835 2.8007C18.0223 2.8007 18.6234 3.41446 18.6234 4.16916V17.2438C18.6234 18.0171 19.2505 18.6441 20.0237 18.6441C20.7969 18.6441 21.4241 18.0171 21.4241 17.2438V12.7026C21.4241 11.9483 22.0248 11.3346 22.7633 11.3346C23.5019 11.3346 24.1027 11.9483 24.1027 12.7026V19.0703C24.1027 19.844 24.7297 20.4707 25.5029 20.4707C26.2763 20.4707 26.9034 19.8442 26.9034 19.0703V14.5302C26.9034 13.7755 27.5042 13.1616 28.2426 13.1616C28.9815 13.1616 29.5825 13.7755 29.5825 14.5302V20.8983C29.5825 21.6715 30.2095 22.2988 30.9829 22.2988C31.7563 22.2988 32.3833 21.6715 32.3833 20.8983L32.3831 16.8231Z" fill="#EDF2F7"/>
<path d="M33.7221 12.6537C33.1426 12.6537 32.5908 12.7746 32.0897 12.9919C31.4805 11.4524 29.9862 10.361 28.2425 10.361C27.5948 10.361 26.9813 10.5117 26.4349 10.7798C25.7434 9.44671 24.3576 8.5338 22.7631 8.5338C22.2944 8.5338 21.8444 8.61373 21.4239 8.7591V4.16916C21.4241 1.8704 19.5666 0 17.2833 0C15.0003 0 13.143 1.8704 13.143 4.16916V20.6855L10.1609 17.2739C10.1401 17.2505 10.1188 17.2276 10.0967 17.2057C9.31374 16.4221 8.27162 15.9877 7.16241 15.9823C7.15523 15.9823 7.14847 15.9823 7.14129 15.9823C6.03471 15.9823 4.99866 16.4095 4.22215 17.1866C2.853 18.5562 2.77721 20.5891 4.0148 22.7648C5.61684 25.5796 7.3583 28.2337 8.8949 30.5757C10.0178 32.2872 11.0785 33.9037 11.8539 35.2403C12.5264 36.4002 14.3113 40.1618 14.3295 40.1998C14.5612 40.6886 15.0539 41.0002 15.5945 41.0002H33.3018C33.9101 41.0002 34.4487 40.6077 34.6352 40.029C34.9654 39.0021 37.8626 29.8966 37.8626 26.3801V16.8233C37.8623 14.5239 36.0052 12.6537 33.7221 12.6537ZM32.3831 16.8231C32.3831 16.0683 32.9839 15.4543 33.7221 15.4543C34.4608 15.4543 35.0616 16.0683 35.0616 16.8231V26.38C35.0616 28.7169 33.2656 34.9993 32.2746 38.1993H16.4776C15.8969 36.9911 14.8087 34.7531 14.2765 33.8352C13.4625 32.4316 12.3811 30.7837 11.2365 29.0389C9.72263 26.7322 8.00712 24.1173 6.44885 21.3798C6.04216 20.6646 5.66943 19.7003 6.20312 19.1666C6.45202 18.9172 6.7872 18.7868 7.14888 18.783C7.50187 18.7848 7.83387 18.9179 8.08829 19.1586L13.4892 25.3369C13.873 25.7763 14.4898 25.9313 15.0357 25.7263C15.582 25.5212 15.9439 24.9987 15.9439 24.4153V4.16916C15.9439 3.41446 16.5448 2.8007 17.2835 2.8007C18.0223 2.8007 18.6234 3.41446 18.6234 4.16916V17.2438C18.6234 18.0171 19.2505 18.6441 20.0237 18.6441C20.7969 18.6441 21.4241 18.0171 21.4241 17.2438V12.7026C21.4241 11.9483 22.0248 11.3346 22.7633 11.3346C23.5019 11.3346 24.1027 11.9483 24.1027 12.7026V19.0703C24.1027 19.844 24.7297 20.4707 25.5029 20.4707C26.2763 20.4707 26.9034 19.8442 26.9034 19.0703V14.5302C26.9034 13.7755 27.5042 13.1616 28.2426 13.1616C28.9815 13.1616 29.5825 13.7755 29.5825 14.5302V20.8983C29.5825 21.6715 30.2095 22.2988 30.9829 22.2988C31.7563 22.2988 32.3833 21.6715 32.3833 20.8983V16.8231H32.3831Z" fill="#718096"/>
</g>
<defs>
<clipPath id="clip0">
<rect width="41" height="41" fill="white"/>
</clipPath>
</defs>
</svg>
